<?xml version="1.0" encoding="UTF-8" standalone="no"?> <svg width="64" height="64" viewBox="0 0 64 64" fill="none" xmlns="http://www.w3.org/2000/svg">
<path d="M32 56.5C31.8368 56.5008 31.6751 56.4695 31.5241 56.4077C31.3731 56.3459 31.2357 56.255 31.12 56.14L6.93995 32C4.25613 29.3098 2.7489 25.665 2.7489 21.865C2.7489 18.065 4.25613 14.4202 6.93995 11.73C9.63141 9.04862 13.2758 7.54308 17.075 7.54308C20.8741 7.54308 24.5185 9.04862 27.2099 11.73L32 16.48L36.79 11.69C39.4832 9.00204 43.134 7.49406 46.9391 7.49781C50.7442 7.50156 54.392 9.01673 57.0799 11.71C59.7679 14.4033 61.2759 18.054 61.2721 21.8591C61.2684 25.6643 59.7532 29.312 57.06 32L32.88 56.14C32.7642 56.255 32.6268 56.3459 32.4758 56.4077C32.3248 56.4695 32.1631 56.5008 32 56.5V56.5ZM17.08 10C15.5257 9.99737 13.9862 10.3016 12.5497 10.8951C11.1132 11.4887 9.80804 12.36 8.709 13.4591C7.60996 14.5581 6.73867 15.8633 6.14509 17.2997C5.55151 18.7362 5.24732 20.2757 5.24995 21.83C5.24338 23.3833 5.54591 24.9224 6.13992 26.3577C6.73394 27.7929 7.60758 29.0957 8.70995 30.19L32 53.49L55.29 30.2C56.4303 29.1101 57.3414 27.8034 57.9697 26.3565C58.598 24.9097 58.9308 23.3518 58.9487 21.7745C58.9665 20.1972 58.669 18.6322 58.0736 17.1715C57.4782 15.7108 56.597 14.3838 55.4816 13.2684C54.3662 12.153 53.0391 11.2717 51.5784 10.6763C50.1177 10.0809 48.5527 9.78344 46.9754 9.80129C45.3981 9.81914 43.8403 10.152 42.3934 10.7803C40.9466 11.4086 39.6398 12.3197 38.5499 13.46L32.88 19.13C32.7647 19.2461 32.6276 19.3383 32.4766 19.4011C32.3255 19.464 32.1635 19.4964 32 19.4964C31.8364 19.4964 31.6744 19.464 31.5233 19.4011C31.3723 19.3383 31.2352 19.2461 31.12 19.13L25.45 13.46C23.2288 11.243 20.2182 9.99849 17.08 10Z" fill="var(--color-seconary)"/>
</svg>
